<?xml version="1.0" encoding="UTF-8" standalone="no"?>
<!-- Created with Inkscape (http://www.inkscape.org/) -->

<svg
   xmlns:dc="http://purl.org/dc/elements/1.1/"
   xmlns:cc="http://creativecommons.org/ns#"
   xmlns:rdf="http://www.w3.org/1999/02/22-rdf-syntax-ns#"
   xmlns:svg="http://www.w3.org/2000/svg"
   xmlns="http://www.w3.org/2000/svg"
   xmlns:sodipodi="http://sodipodi.sourceforge.net/DTD/sodipodi-0.dtd"
   xmlns:inkscape="http://www.inkscape.org/namespaces/inkscape"
   id="svg4196"
   version="1.1"
   inkscape:version="0.91 r13725"
   width="462.69501"
   height="167.72694"
   viewBox="0 0 462.69501 167.72694"
   sodipodi:docname="pipeline1.svg">
  <metadata
     id="metadata4202">
    <rdf:RDF>
      <cc:Work
         rdf:about="">
        <dc:format>image/svg+xml</dc:format>
        <dc:type
           rdf:resource="http://purl.org/dc/dcmitype/StillImage" />
        <dc:title></dc:title>
      </cc:Work>
    </rdf:RDF>
  </metadata>
  <defs
     id="defs4200" />
  <sodipodi:namedview
     pagecolor="#ffffff"
     bordercolor="#666666"
     borderopacity="1"
     objecttolerance="10"
     gridtolerance="10"
     guidetolerance="10"
     inkscape:pageopacity="0"
     inkscape:pageshadow="2"
     inkscape:window-width="1600"
     inkscape:window-height="836"
     id="namedview4198"
     showgrid="false"
     fit-margin-top="0"
     fit-margin-left="0"
     fit-margin-right="0"
     fit-margin-bottom="0"
     inkscape:zoom="1.1063647"
     inkscape:cx="124.56931"
     inkscape:cy="183.26215"
     inkscape:window-x="0"
     inkscape:window-y="27"
     inkscape:window-maximized="1"
     inkscape:current-layer="svg4196" />
  <path
     style="fill:#ffffff"
     d="m 5.783688,164.83509 c 0,-2.89184 0,-2.89184 -2.891844,-2.89184 L 0,161.94325 0,83.863468 0,5.783687 l 2.891844,0 c 2.891844,0 2.891844,0 2.891844,-2.891843 l 0,-2.891844 14.459218,0 14.459219,0 0,2.891844 c 0,2.891843 0,2.891843 2.891844,2.891843 l 2.891843,0 0,78.079781 0,78.079782 -2.891843,0 c -2.891844,0 -2.891844,0 -2.891844,2.89184 l 0,2.89185 -14.459219,0 -14.459218,0 0,-2.89185 z m 28.918437,-80.971622 0,-78.079781 -14.459219,0 -14.459218,0 0,78.079781 0,78.079782 14.459218,0 14.459219,0 0,-78.079782 z M 231.3475,153.26772 c 0,-2.89184 0,-2.89184 -2.89184,-2.89184 l -2.89185,0 0,-14.45922 0,-14.45922 -20.2429,0 -20.24291,0 0,-2.89185 c 0,-2.89184 0,-2.89184 -2.89184,-2.89184 l -2.89185,0 0,-14.45922 0,-14.459218 -20.2429,0 -20.24291,0 0,-2.891844 c 0,-2.891844 0,-2.891844 -2.89184,-2.891844 l -2.89185,0 0,-14.459218 0,-14.459219 -20.2429,0 -20.242911,0 0,-2.891844 c 0,-2.891843 0,-2.891843 -2.891843,-2.891843 l -2.891844,0 0,-14.459219 0,-14.459219 2.891844,0 c 2.891843,0 2.891843,0 2.891843,-2.891843 l 0,-2.891844 20.242911,0 20.2429,0 0,2.891844 c 0,2.891843 0,2.891843 2.89185,2.891843 2.89184,0 2.89184,0 2.89184,-2.891843 l 0,-2.891844 20.24291,0 20.2429,0 0,2.891844 c 0,2.891843 0,2.891843 2.89185,2.891843 2.89184,0 2.89184,0 2.89184,-2.891843 l 0,-2.891844 20.24291,0 20.2429,0 0,2.891844 c 0,2.891843 0,2.891843 2.89185,2.891843 2.89184,0 2.89184,0 2.89184,-2.891843 l 0,-2.891844 20.24291,0 20.2429,0 0,2.891844 c 0,2.891843 0,2.891843 2.89185,2.891843 2.89184,0 2.89184,0 2.89184,-2.891843 l 0,-2.891844 20.24291,0 20.2429,0 0,2.891844 c 0,2.891843 0,2.891843 2.89185,2.891843 l 2.89184,0 0,14.459219 0,14.459219 20.24291,0 20.2429,0 0,2.891843 c 0,2.891844 0,2.891844 2.89184,2.891844 l 2.89185,0 0,14.459219 0,14.459218 20.2429,0 20.24291,0 0,2.891844 c 0,2.891844 0,2.891844 2.89184,2.891844 l 2.89185,0 0,14.459218 0,14.45922 20.2429,0 20.24291,0 0,2.89184 c 0,2.89185 0,2.89185 2.89184,2.89185 l 2.89185,0 0,14.45922 0,14.45922 -2.89185,0 c -2.89184,0 -2.89184,0 -2.89184,2.89184 l 0,2.89184 -20.24291,0 -20.2429,0 0,-2.89184 c 0,-2.89184 0,-2.89184 -2.89185,-2.89184 -2.89184,0 -2.89184,0 -2.89184,2.89184 l 0,2.89184 -20.24291,0 -20.2429,0 0,-2.89184 c 0,-2.89184 0,-2.89184 -2.89185,-2.89184 -2.89184,0 -2.89184,0 -2.89184,2.89184 l 0,2.89184 -20.2429,0 -20.24291,0 0,-2.89184 c 0,-2.89184 0,-2.89184 -2.89184,-2.89184 -2.89185,0 -2.89185,0 -2.89185,2.89184 l 0,2.89184 -20.2429,0 -20.24291,0 0,-2.89184 c 0,-2.89184 0,-2.89184 -2.89184,-2.89184 -2.89185,0 -2.89185,0 -2.89185,2.89184 l 0,2.89184 -20.2429,0 -20.24291,0 0,-2.89184 z m 40.48581,-17.35106 0,-14.45922 -20.2429,0 -20.24291,0 0,14.45922 0,14.45922 20.24291,0 20.2429,0 0,-14.45922 z m 46.2695,0 0,-14.45922 -20.2429,0 -20.24291,0 0,14.45922 0,14.45922 20.24291,0 20.2429,0 0,-14.45922 z m 46.2695,0 0,-14.45922 -20.2429,0 -20.24291,0 0,14.45922 0,14.45922 20.24291,0 20.2429,0 0,-14.45922 z m 46.2695,0 0,-14.45922 -20.24291,0 -20.2429,0 0,14.45922 0,14.45922 20.2429,0 20.24291,0 0,-14.45922 z m 46.2695,0 0,-14.45922 -20.24291,0 -20.2429,0 0,14.45922 0,14.45922 20.2429,0 20.24291,0 0,-14.45922 z m -231.3475,-34.70213 0,-14.459218 -20.2429,0 -20.24291,0 0,14.459218 0,14.45922 20.24291,0 20.2429,0 0,-14.45922 z m 46.2695,0 0,-14.459218 -20.2429,0 -20.24291,0 0,14.459218 0,14.45922 20.24291,0 20.2429,0 0,-14.45922 z m 46.2695,0 0,-14.459218 -20.2429,0 -20.24291,0 0,14.459218 0,14.45922 20.24291,0 20.2429,0 0,-14.45922 z m 46.2695,0 0,-14.459218 -20.2429,0 -20.24291,0 0,14.459218 0,14.45922 20.24291,0 20.2429,0 0,-14.45922 z m 46.2695,0 0,-14.459218 -20.24291,0 -20.2429,0 0,14.459218 0,14.45922 20.2429,0 20.24291,0 0,-14.45922 z m -231.3475,-34.702124 0,-14.459219 -20.2429,0 -20.24291,0 0,14.459219 0,14.459218 20.24291,0 20.2429,0 0,-14.459218 z m 46.2695,0 0,-14.459219 -20.2429,0 -20.24291,0 0,14.459219 0,14.459218 20.24291,0 20.2429,0 0,-14.459218 z m 46.2695,0 0,-14.459219 -20.2429,0 -20.24291,0 0,14.459219 0,14.459218 20.24291,0 20.2429,0 0,-14.459218 z m 46.2695,0 0,-14.459219 -20.2429,0 -20.24291,0 0,14.459219 0,14.459218 20.24291,0 20.2429,0 0,-14.459218 z m 46.2695,0 0,-14.459219 -20.2429,0 -20.24291,0 0,14.459219 0,14.459218 20.24291,0 20.2429,0 0,-14.459218 z m -231.3475,-34.702125 0,-14.459219 -20.2429,0 -20.242911,0 0,14.459219 0,14.459219 20.242911,0 20.2429,0 0,-14.459219 z m 46.2695,0 0,-14.459219 -20.24291,0 -20.2429,0 0,14.459219 0,14.459219 20.2429,0 20.24291,0 0,-14.459219 z m 46.2695,0 0,-14.459219 -20.2429,0 -20.24291,0 0,14.459219 0,14.459219 20.24291,0 20.2429,0 0,-14.459219 z m 46.2695,0 0,-14.459219 -20.2429,0 -20.24291,0 0,14.459219 0,14.459219 20.24291,0 20.2429,0 0,-14.459219 z m 46.2695,0 0,-14.459219 -20.2429,0 -20.24291,0 0,14.459219 0,14.459219 20.24291,0 20.2429,0 0,-14.459219 z M 52.053187,135.91666 l 0,-14.45922 2.891844,0 c 2.891844,0 2.891844,0 2.891844,2.89184 0,2.89184 0,2.89184 2.891843,2.89184 2.891844,0 2.891844,0 2.891844,2.89185 0,2.89184 0,2.89184 2.891844,2.89184 2.891844,0 2.891844,0 2.891844,2.89185 0,2.89184 0,2.89184 -2.891844,2.89184 -2.891844,0 -2.891844,0 -2.891844,2.89184 0,2.89185 0,2.89185 -2.891844,2.89185 -2.891843,0 -2.891843,0 -2.891843,2.89184 0,2.89185 0,2.89185 -2.891844,2.89185 l -2.891844,0 0,-14.45922 z m 0,-34.70213 0,-14.459218 2.891844,0 c 2.891844,0 2.891844,0 2.891844,2.891843 0,2.891844 0,2.891844 2.891843,2.891844 2.891844,0 2.891844,0 2.891844,2.891844 0,2.891844 0,2.891844 2.891844,2.891844 2.891844,0 2.891844,0 2.891844,2.891843 0,2.89184 0,2.89184 -2.891844,2.89184 -2.891844,0 -2.891844,0 -2.891844,2.89185 0,2.89184 0,2.89184 -2.891844,2.89184 -2.891843,0 -2.891843,0 -2.891843,2.89185 0,2.89184 0,2.89184 -2.891844,2.89184 l -2.891844,0 0,-14.45922 z m 0,-34.702124 0,-14.459219 2.891844,0 c 2.891844,0 2.891844,0 2.891844,2.891844 0,2.891843 0,2.891843 2.891843,2.891843 2.891844,0 2.891844,0 2.891844,2.891844 0,2.891844 0,2.891844 2.891844,2.891844 2.891844,0 2.891844,0 2.891844,2.891844 0,2.891843 0,2.891843 -2.891844,2.891843 -2.891844,0 -2.891844,0 -2.891844,2.891844 0,2.891844 0,2.891844 -2.891844,2.891844 -2.891843,0 -2.891843,0 -2.891843,2.891844 0,2.891843 0,2.891843 -2.891844,2.891843 l -2.891844,0 0,-14.459218 z m 0,-34.702125 0,-14.459219 2.891844,0 c 2.891844,0 2.891844,0 2.891844,2.891844 0,2.891844 0,2.891844 2.891843,2.891844 2.891844,0 2.891844,0 2.891844,2.891844 0,2.891843 0,2.891843 2.891844,2.891843 2.891844,0 2.891844,0 2.891844,2.891844 0,2.891844 0,2.891844 -2.891844,2.891844 -2.891844,0 -2.891844,0 -2.891844,2.891843 0,2.891844 0,2.891844 -2.891844,2.891844 -2.891843,0 -2.891843,0 -2.891843,2.891844 0,2.891844 0,2.891844 -2.891844,2.891844 l -2.891844,0 0,-14.459219 z"
     id="path4206"
     inkscape:connector-curvature="0" />
</svg>
