<?xml version="1.0" encoding="UTF-8" standalone="no"?>
<!-- Created with Inkscape (http://www.inkscape.org/) -->

<svg
   xmlns:dc="http://purl.org/dc/elements/1.1/"
   xmlns:cc="http://creativecommons.org/ns#"
   xmlns:rdf="http://www.w3.org/1999/02/22-rdf-syntax-ns#"
   xmlns:svg="http://www.w3.org/2000/svg"
   xmlns="http://www.w3.org/2000/svg"
   xmlns:sodipodi="http://sodipodi.sourceforge.net/DTD/sodipodi-0.dtd"
   xmlns:inkscape="http://www.inkscape.org/namespaces/inkscape"
   width="125.13955mm"
   height="72.64035mm"
   viewBox="0 0 443.40788 257.38707"
   id="svg9161"
   version="1.1"
   inkscape:version="0.91 r13725"
   sodipodi:docname="pxbtn_raised.svg">
  <defs
     id="defs9163" />
  <sodipodi:namedview
     id="base"
     pagecolor="#ffffff"
     bordercolor="#666666"
     borderopacity="1.0"
     inkscape:pageopacity="0.0"
     inkscape:pageshadow="2"
     inkscape:zoom="0.35"
     inkscape:cx="-398.43356"
     inkscape:cy="662.90702"
     inkscape:document-units="px"
     inkscape:current-layer="layer1"
     showgrid="false"
     inkscape:window-width="1600"
     inkscape:window-height="836"
     inkscape:window-x="0"
     inkscape:window-y="27"
     inkscape:window-maximized="1"
     fit-margin-top="0"
     fit-margin-left="0"
     fit-margin-right="0"
     fit-margin-bottom="0" />
  <metadata
     id="metadata9166">
    <rdf:RDF>
      <cc:Work
         rdf:about="">
        <dc:format>image/svg+xml</dc:format>
        <dc:type
           rdf:resource="http://purl.org/dc/dcmitype/StillImage" />
        <dc:title></dc:title>
      </cc:Work>
    </rdf:RDF>
  </metadata>
  <g
     inkscape:label="Layer 1"
     inkscape:groupmode="layer"
     id="layer1"
     transform="translate(-256.29074,-937.88221)">
    <path
       style="fill:#ffffff;opacity:0.8"
       d="m 403.70339,1192.3445 0,-2.9249 -2.92486,0 -2.92485,0 0,-3.5098 0,-3.5098 -3.50982,0 -3.50983,0 0,3.5098 0,3.5098 -2.92485,0 -2.92486,0 0,-3.5098 0,-3.5098 -3.50982,0 -3.50983,0 0,3.5098 0,3.5098 -2.92485,0 -2.92485,0 0,-3.5098 0,-3.5098 -3.50983,0 -3.50982,0 0,3.5098 0,3.5098 -2.92486,0 -2.92485,0 0,-3.5098 0,-3.5098 -3.50983,0 -3.50982,0 0,3.5098 0,3.5098 -2.92486,0 -2.92485,0 0,-3.5098 0,-3.5098 -29.24855,0 -29.24854,0 0,-2.9249 0,-2.9248 -2.92485,0 -2.92486,0 0,-3.5099 0,-3.5098 -3.50982,0 -3.50983,0 0,-2.9248 0,-2.9249 -2.92485,0 -2.92485,0 0,-3.5098 0,-3.5098 -3.50983,0 -3.50982,0 0,-6.4347 0,-6.4347 -2.92486,0 -2.92485,0 0,-83.6508 0,-83.65089 2.92485,0 2.92486,0 0,-6.4346 0,-6.4347 3.50982,0 3.50983,0 0,-2.9249 0,-2.9248 2.92485,0 2.92485,0 0,-3.5098 0,-3.5099 3.50983,0 3.50982,0 0,-2.9248 0,-2.9249 2.92486,0 2.92485,0 0,-3.5098 0,-3.5098 180.171,0 180.17105,0 0,3.5098 0,3.5098 6.4347,0 6.4347,0 0,2.9249 0,2.9248 3.5098,0 3.5098,0 0,3.5099 0,3.5098 2.9249,0 2.9248,0 0,2.9248 0,2.9249 3.5099,0 3.5098,0 0,9.9445 0,9.94451 2.9248,0 2.9249,0 0,32.17338 0,32.1734 3.5098,0 3.5098,0 0,2.9248 0,2.9249 -3.5098,0 -3.5098,0 0,3.5098 0,3.5098 3.5098,0 3.5098,0 0,2.9249 0,2.9248 2.92491,0 2.92479,0 0,3.5099 0,3.5098 -2.92479,0 -2.92491,0 0,2.9249 0,2.9248 2.92491,0 2.92479,0 0,3.5098 0,3.5099 -2.92479,0 -2.92491,0 0,2.9248 0,2.9249 2.92491,0 2.92479,0 0,3.5098 0,3.5098 -2.92479,0 -2.92491,0 0,2.9249 0,2.9248 2.92491,0 2.92479,0 0,3.5098 0,3.5099 -2.92479,0 -2.92491,0 0,2.9248 0,2.9249 2.92491,0 2.92479,0 0,3.5098 0,3.5098 -2.92479,0 -2.92491,0 0,2.9249 0,2.9248 2.92491,0 2.92479,0 0,3.5099 0,3.5098 -2.92479,0 -2.92491,0 0,2.9248 0,2.9249 2.92491,0 2.92479,0 0,3.5098 0,3.5098 -2.92479,0 -2.92491,0 0,2.9249 0,2.9249 2.92491,0 2.92479,0 0,3.5098 0,3.5098 -2.92479,0 -2.92491,0 0,2.9249 0,2.9248 -3.5098,0 -3.5098,0 0,3.5098 0,3.5099 3.5098,0 3.5098,0 0,2.9248 0,2.9249 -3.5098,0 -3.5098,0 0,-2.9249 0,-2.9248 -2.9249,0 -2.9248,0 0,2.9248 0,2.9249 -3.5098,0 -3.5099,0 0,3.5098 0,3.5098 -2.9248,0 -2.9249,0 0,2.9249 0,2.9248 -3.5098,0 -3.5098,0 0,-2.9248 0,-2.9249 -2.9249,0 -2.9248,0 0,2.9249 0,2.9248 -3.5099,0 -3.5098,0 0,-2.9248 0,-2.9249 -2.9248,0 -2.9249,0 0,2.9249 0,2.9248 -3.5098,0 -3.5098,0 0,-2.9248 0,-2.9249 -2.9249,0 -2.92494,0 0,2.9249 0,2.9248 -3.5098,0 -3.5098,0 0,-2.9248 0,-2.9249 -2.9249,0 -2.9248,0 0,2.9249 0,2.9248 -3.5098,0 -3.5099,0 0,-2.9248 0,-2.9249 -2.9248,0 -2.9249,0 0,2.9249 0,2.9248 -3.5098,0 -3.5098,0 0,-2.9248 0,-2.9249 -2.9249,0 -2.9248,0 0,2.9249 0,2.9248 -3.5098,0 -3.5099,0 0,-2.9248 0,-2.9249 -2.9248,0 -2.9249,0 0,2.9249 0,2.9248 -3.5098,0 -3.5098,0 0,-2.9248 0,-2.9249 -2.9249,0 -2.9248,0 0,2.9249 0,2.9248 -3.5099,0 -3.5098,0 0,-2.9248 0,-2.9249 -2.9248,0 -2.9249,0 0,2.9249 0,2.9248 -3.5098,0 -3.5098,0 0,-2.9248 0,-2.9249 -2.9249,0 -2.9249,0 0,2.9249 0,2.9248 -3.5098,0 -3.5098,0 0,-2.9248 0,-2.9249 -2.9249,0 -2.9248,0 0,2.9249 0,2.9248 -3.5098,0 -3.5099,0 0,-2.9248 0,-2.9249 -2.9248,0 -2.9249,0 0,2.9249 0,2.9248 -3.5098,0 -3.50981,0 0,-2.9248 0,-2.9249 -2.9249,0 -2.9248,0 0,2.9249 0,2.9248 -3.5099,0 -3.5098,0 0,-2.9248 0,-2.9249 -2.9248,0 -2.9249,0 0,2.9249 0,2.9248 -3.5098,0 -3.5098,0 0,-2.9248 0,-2.9249 -2.9249,0 -2.9248,0 0,2.9249 0,2.9248 -3.5099,0 -3.5098,0 0,-2.9248 0,-2.9249 -2.9248,0 -2.9249,0 0,2.9249 0,2.9248 -3.5098,0 -3.5098,0 0,-2.9248 0,-2.9249 -2.9249,0 -2.9249,0 0,2.9249 0,2.9248 -3.5098,0 -3.5098,0 0,-2.9248 0,-2.9249 -2.9249,0 -2.9248,0 0,2.9249 0,2.9248 -3.5098,0 -3.5099,0 0,-2.9248 0,-2.9249 -2.92481,0 -2.92486,0 0,2.9249 0,2.9248 -3.50982,0 -3.50982,0 0,-2.9248 0,-2.9249 -2.92486,0 -2.92485,0 0,2.9249 0,2.9248 -3.50983,0 -3.50982,0 z m 7.01965,-6.4347 0,-3.5098 -3.50983,0 -3.50982,0 0,3.5098 0,3.5098 3.50982,0 3.50983,0 z m 12.86935,0 0,-3.5098 -3.50982,0 -3.50982,0 0,3.5098 0,3.5098 3.50982,0 3.50982,0 z m 12.86937,0 0,-3.5098 -3.5098,0 -3.5099,0 0,3.5098 0,3.5098 3.5099,0 3.5098,0 z m 12.8693,0 0,-3.5098 -3.5098,0 -3.5098,0 0,3.5098 0,3.5098 3.5098,0 3.5098,0 z m 12.8694,0 0,-3.5098 -3.5098,0 -3.5098,0 0,3.5098 0,3.5098 3.5098,0 3.5098,0 z m 12.8694,0 0,-3.5098 -3.5099,0 -3.5098,0 0,3.5098 0,3.5098 3.5098,0 3.5099,0 z m 12.8693,0 0,-3.5098 -3.5098,0 -3.5098,0 0,3.5098 0,3.5098 3.5098,0 3.5098,0 z m 12.8694,0 0,-3.5098 -3.5099,0 -3.5098,0 0,3.5098 0,3.5098 3.5098,0 3.5099,0 z m 12.86931,0 0,-3.5098 -3.5098,0 -3.50981,0 0,3.5098 0,3.5098 3.50981,0 3.5098,0 z m 12.8694,0 0,-3.5098 -3.5098,0 -3.5099,0 0,3.5098 0,3.5098 3.5099,0 3.5098,0 z m 12.8693,0 0,-3.5098 -3.5098,0 -3.5098,0 0,3.5098 0,3.5098 3.5098,0 3.5098,0 z m 12.8694,0 0,-3.5098 -3.5098,0 -3.5098,0 0,3.5098 0,3.5098 3.5098,0 3.5098,0 z m 12.8694,0 0,-3.5098 -3.5099,0 -3.5098,0 0,3.5098 0,3.5098 3.5098,0 3.5099,0 z m 12.8693,0 0,-3.5098 -3.5098,0 -3.5098,0 0,3.5098 0,3.5098 3.5098,0 3.5098,0 z m 12.8694,0 0,-3.5098 -3.5098,0 -3.5099,0 0,3.5098 0,3.5098 3.5099,0 3.5098,0 z m 12.8693,0 0,-3.5098 -3.5098,0 -3.5098,0 0,3.5098 0,3.5098 3.5098,0 3.5098,0 z m 12.8694,0 0,-3.5098 -3.5098,0 -3.5099,0 0,3.5098 0,3.5098 3.5099,0 3.5098,0 z m 12.8693,0 0,-3.5098 -3.5098,0 -3.5098,0 0,3.5098 0,3.5098 3.5098,0 3.5098,0 z m 12.86944,0 0,-3.5098 -3.5098,0 -3.5098,0 0,3.5098 0,3.5098 3.5098,0 3.5098,0 z m 12.8694,0 0,-3.5098 2.9248,0 2.9249,0 0,3.5098 0,3.5098 3.5098,0 3.5098,0 0,-3.5098 0,-3.5098 2.9249,0 2.9248,0 0,-2.9249 0,-2.9248 3.5099,0 3.5098,0 0,-3.5099 0,-3.5098 2.9248,0 2.9249,0 0,-2.9248 0,-2.9249 3.5098,0 3.5098,0 0,-3.5098 0,-3.5098 -3.5098,0 -3.5098,0 0,-2.9249 0,-2.9249 3.5098,0 3.5098,0 0,-3.5098 0,-3.5098 -3.5098,0 -3.5098,0 0,-2.9249 0,-2.9248 3.5098,0 3.5098,0 0,-3.5098 0,-3.5099 -3.5098,0 -3.5098,0 0,3.5099 0,3.5098 -2.9249,0 -2.9248,0 0,2.9248 0,2.9249 2.9248,0 2.9249,0 0,3.5098 0,3.5098 -2.9249,0 -2.9248,0 0,2.9249 0,2.9249 -3.5098,0 -3.5099,0 0,3.5098 0,3.5098 -2.9248,0 -2.9249,0 0,2.9249 0,2.9248 -3.5098,0 -3.5098,0 0,3.5098 0,3.5099 -2.9249,0 -2.9248,0 0,2.9248 0,2.9249 -3.5099,0 -3.5098,0 0,3.5098 0,3.5098 3.5098,0 3.5099,0 z m 5.8497,-6.4347 0,-2.9248 3.5098,0 3.5098,0 0,-3.5099 0,-3.5098 2.9249,0 2.9248,0 0,-2.9248 0,-2.9249 3.5099,0 3.5098,0 0,-3.5098 0,-3.5098 2.9248,0 2.9249,0 0,3.5098 0,3.5098 -2.9249,0 -2.9248,0 0,2.9249 0,2.9248 -3.5098,0 -3.5099,0 0,3.5098 0,3.5099 -2.9248,0 -2.9249,0 0,2.9248 0,2.9249 -3.5098,0 -3.5098,0 z m 32.7583,-57.9121 0,-3.5098 -3.5098,0 -3.5098,0 0,3.5098 0,3.5098 3.5098,0 3.5098,0 z m 0,-12.8694 0,-3.5098 -3.5098,0 -3.5098,0 0,3.5098 0,3.5099 3.5098,0 3.5098,0 z m 0,-12.8693 0,-3.5098 -3.5098,0 -3.5098,0 0,3.5098 0,3.5098 3.5098,0 3.5098,0 z m 0,-12.8694 0,-3.5098 -3.5098,0 -3.5098,0 0,3.5098 0,3.5099 3.5098,0 3.5098,0 z m 0,-12.8693 0,-3.5099 -3.5098,0 -3.5098,0 0,3.5099 0,3.5098 3.5098,0 3.5098,0 z"
       id="path9150"
       inkscape:connector-curvature="0"
       sodipodi:nodetypes="ccccccccccccccccccccccccccccccccccccccccccccccccccccccccccccccccccccccccccccccccccccccccccccccccccccccccccccccccccccccccccccccccccccccccccccccccccccccccccccccccccccccccccccccccccccccccccccccccccccccccccccccccccccccccccccccccccccccccccccccccccccccccccccccccccccccccccccccccccccccccccccccccccccccccccccccccccccccccccccccccccccccccccccccccccccccccccccccccccccccccccccccccccccccccccccccccccccccccccccccccccccccccccccccccccccccccccccccccccccccccccccccccccccccccccccccccccccccccccccccccccccccccccccccccccccccccccccccccccccccccccccccccccccccccccccccccccccccccccccccccccccccccccccccccccccccccccccccccccccccccccccccccccccccccccccccccccccccccccccccccccccccccccccccccccccccccccccccccccccccccccccccccccccccccccc" />
  </g>
</svg>
