<?xml version="1.0" encoding="UTF-8" standalone="no"?>
<!-- Created with Inkscape (http://www.inkscape.org/) -->

<svg
   xmlns:dc="http://purl.org/dc/elements/1.1/"
   xmlns:cc="http://creativecommons.org/ns#"
   xmlns:rdf="http://www.w3.org/1999/02/22-rdf-syntax-ns#"
   xmlns:svg="http://www.w3.org/2000/svg"
   xmlns="http://www.w3.org/2000/svg"
   xmlns:sodipodi="http://sodipodi.sourceforge.net/DTD/sodipodi-0.dtd"
   xmlns:inkscape="http://www.inkscape.org/namespaces/inkscape"
   width="43.34127mm"
   height="56.213627mm"
   viewBox="0 0 153.57143 199.18214"
   id="svg27141"
   version="1.1"
   inkscape:version="0.91 r13725"
   sodipodi:docname="stack1.svg">
  <defs
     id="defs27143" />
  <sodipodi:namedview
     id="base"
     pagecolor="#ffffff"
     bordercolor="#666666"
     borderopacity="1.0"
     inkscape:pageopacity="0.0"
     inkscape:pageshadow="2"
     inkscape:zoom="2.8"
     inkscape:cx="60.671098"
     inkscape:cy="74.367335"
     inkscape:document-units="px"
     inkscape:current-layer="layer1"
     showgrid="false"
     fit-margin-top="0"
     fit-margin-left="0"
     fit-margin-right="0"
     fit-margin-bottom="0"
     inkscape:window-width="1600"
     inkscape:window-height="836"
     inkscape:window-x="0"
     inkscape:window-y="27"
     inkscape:window-maximized="1" />
  <metadata
     id="metadata27146">
    <rdf:RDF>
      <cc:Work
         rdf:about="">
        <dc:format>image/svg+xml</dc:format>
        <dc:type
           rdf:resource="http://purl.org/dc/dcmitype/StillImage" />
        <dc:title></dc:title>
      </cc:Work>
    </rdf:RDF>
  </metadata>
  <g
     inkscape:label="Layer 1"
     inkscape:groupmode="layer"
     id="layer1"
     transform="translate(-23.214286,35.800297)">
    <path
       style="opacity:1;fill:#ffffff;fill-opacity:1;stroke:none;stroke-width:6;stroke-linecap:round;stroke-linejoin:round"
       d="m 92.100286,-35.800297 0.138214,1.578714 0.153571,1.799857 7.649389,0 7.6494,0 0,-1.680071 c 0,-0.872286 0.19043,-1.529572 0.4776,-1.6985 z m -7.457429,3.378571 0,1.919643 0,1.919643 3.839286,0 3.839286,0 0,-1.919643 0,-1.919643 -3.839286,0 z m 0,3.839286 -3.839286,0 -3.839285,0 0,1.919643 0,1.919643 3.839285,0 3.839286,0 0,-1.919643 z m -7.678571,3.839286 -3.839286,0 -3.839286,0 0,1.919642 0,1.919643 3.839286,0 3.839286,0 0,-1.919643 z m -7.678572,3.839285 -3.839285,0 -3.839286,0 0,1.919643 0,1.919643 3.839286,0 3.839285,0 0,-1.919643 z m -7.678571,3.839286 -3.839286,0 -3.839286,0 0,1.919643 0,1.919642 3.839286,0 3.839286,0 0,-1.919642 z m -7.678572,3.839285 -3.839285,0 -3.839286,0 0,1.919643 0,1.9196432 3.839286,0 3.839285,0 0,-1.9196432 z M 46.25,-9.3860118 l -3.839286,0 -3.839285,0 0,1.9196428 0,1.9196429 3.839285,0 3.839286,0 0,-1.9196429 z m -7.678571,3.8392857 -3.839286,0 -3.839286,0 0,1.9196428 c 0,1.9196429 0,1.9196429 -1.919643,1.9196429 -1.919643,0 -1.919643,0 -1.919643,1.91964285 0,1.91964285 0,1.91964285 -1.919642,1.91964285 l -1.919643,0 0,5.7589286 0,5.7589281 1.919643,0 1.919642,0 0,-5.7589281 0,-5.7589286 1.919643,0 c 1.919643,0 1.919643,0 1.919643,-1.91964285 l 0,-1.91964285 3.839286,0 3.839286,0 0,-1.9196429 z m -11.517858,19.1964281 0,3.839286 0,3.839286 1.919643,0 c 1.919643,0 1.919643,0 1.919643,1.919643 0,1.919643 0,1.919643 1.919643,1.919643 1.919643,0 1.919643,0 1.919643,1.919642 l 0,1.919643 7.678571,0 7.678572,0 0,-1.919643 0,-1.919642 -7.678572,0 -7.678571,0 0,-1.919643 c 0,-1.919643 0,-1.919643 -1.919643,-1.919643 l -1.919643,0 0,-3.839286 0,-3.839286 -1.919643,0 z m 23.035715,11.517858 3.839285,0 3.839286,0 0,-1.919643 0,-1.919643 -3.839286,0 -3.839285,0 0,1.919643 z m 7.678571,-3.839286 3.839286,0 3.839286,0 0,-1.919643 0,-1.919643 -3.839286,0 -3.839286,0 0,1.919643 z m 7.678572,-3.839286 3.839285,0 3.839286,0 0,-1.919643 0,-1.919643 -3.839286,0 -3.839285,0 0,1.919643 z m 7.678571,-3.839286 3.839286,0 3.839285,0 0,-1.919642 0,-1.9196433 -3.839285,0 -3.839286,0 0,1.9196433 z m 7.678571,-3.8392853 3.839286,0 3.839286,0 0,-1.9196428 0,-1.9196429 -3.839286,0 -3.839286,0 0,1.9196429 z m 7.678572,-3.8392857 3.839286,0 3.839285,0 0,-1.9196428 0,-1.9196429 -3.839285,0 -3.839286,0 0,1.9196429 z m 7.678571,-3.8392857 3.839286,0 3.83929,0 0,-1.91964285 0,-1.91964285 -3.83929,0 -3.839286,0 0,1.91964285 z m 7.678576,-3.8392857 3.83928,0 3.83929,0 0,-1.9196429 c 0,-1.9196428 0,-1.9196428 1.91964,-1.9196428 l 1.91964,0 0,-3.8392857 0,-3.8392862 -1.91964,0 -1.91964,0 0,3.8392862 0,3.8392857 -3.83929,0 -3.83928,0 0,1.9196428 z m 11.51785,-11.5178576 1.91965,0 1.91964,0 0,-3.839285 0,-3.839286 -1.91964,0 -1.91965,0 0,3.839286 z m 0,-7.678571 0,-3.839285 0,-3.839286 -1.91964,0 c -1.91964,0 -1.91964,0 -1.91964,-1.919643 0,-1.919643 0,-1.919643 -1.91965,-1.919643 -1.91964,0 -1.91964,0 -1.91964,1.919643 0,1.919643 0,1.919643 1.91964,1.919643 l 1.91965,0 0,3.839286 0,3.839285 1.91964,0 z m 19.19643,3.839286 0,15.3571426 0,15.3571424 -3.83928,0 -3.83929,0 0,1.919643 c 0,1.919643 0,1.919643 1.91964,1.919643 1.91965,0 1.91965,0 1.91965,1.919643 0,1.919643 0,1.919643 1.91964,1.919643 1.91964,0 1.91964,0 1.91964,1.919643 0,1.919643 0,1.919643 1.91964,1.919643 1.91965,0 1.91965,0 1.91965,-1.919643 0,-1.919643 0,-1.919643 1.91964,-1.919643 1.91964,0 1.91964,0 1.91964,-1.919643 0,-1.919643 0,-1.919643 1.91965,-1.919643 1.91964,0 1.91964,0 1.91964,-1.919643 l 0,-1.919643 -3.83929,0 -3.83928,0 0,-15.3571424 0,-15.3571426 -1.91965,0 z m -72.946427,53.75 0,1.919643 c 0,1.919642 0,1.919642 -1.919643,1.919642 -1.919643,0 -1.919643,0 -1.919643,1.919643 0,1.919643 0,1.919643 -1.919643,1.919643 l -1.919643,0 0,11.517857 0,11.517857 1.919643,0 c 1.919643,0 1.919643,0 1.919643,1.919643 0,1.919643 0,1.919643 1.919643,1.919643 1.919643,0 1.919643,0 1.919643,1.919643 0,1.919643 0,1.919643 -1.919643,1.919643 -1.919643,0 -1.919643,0 -1.919643,1.919643 0,1.919643 0,1.919643 -1.919643,1.919643 l -1.919643,0 0,11.517857 0,11.517853 1.919643,0 c 1.919643,0 1.919643,0 1.919643,1.91965 0,1.91964 0,1.91964 1.919643,1.91964 1.919643,0 1.919643,0 1.919643,1.91964 0,1.91965 0,1.91965 -1.919643,1.91965 -1.919643,0 -1.919643,0 -1.919643,1.91964 0,1.91964 0,1.91964 -1.919643,1.91964 l -1.919643,0 0,11.51786 0,11.51786 1.919643,0 c 1.919643,0 1.919643,0 1.919643,1.91964 0,1.91965 0,1.91965 1.919643,1.91965 1.919643,0 1.919643,0 1.919643,1.91964 l 0,1.91964 -17.276786,0 -17.276786,0 0,1.91965 c 0,1.91964 0,1.91964 1.919643,1.91964 1.919643,0 1.919643,0 1.919643,1.91964 0,1.91964 0,1.91964 1.919643,1.91964 1.919643,0 1.919643,0 1.919643,1.91965 0,1.91964 0,1.91964 1.919643,1.91964 1.919643,0 1.919643,0 1.919643,-1.91964 0,-1.91965 0,-1.91965 1.919642,-1.91965 1.919643,0 1.919643,0 1.919643,1.91965 0,1.91964 0,1.91964 1.919643,1.91964 1.919643,0 1.919643,0 1.919643,-1.91964 0,-1.91965 0,-1.91965 1.919643,-1.91965 1.919643,0 1.919643,0 1.919643,1.91965 0,1.91964 0,1.91964 1.919643,1.91964 1.919642,0 1.919642,0 1.919642,-1.91964 0,-1.91965 0,-1.91965 1.919643,-1.91965 1.919643,0 1.919643,0 1.919643,1.91965 0,1.91964 0,1.91964 1.919643,1.91964 1.919643,0 1.919643,0 1.919643,-1.91964 0,-1.91965 0,-1.91965 1.919643,-1.91965 1.919643,0 1.919643,0 1.919643,1.91965 0,1.91964 0,1.91964 1.919642,1.91964 1.919643,0 1.919643,0 1.919643,-1.91964 0,-1.91965 0,-1.91965 1.919643,-1.91965 1.919643,0 1.919643,0 1.919643,1.91965 0,1.91964 0,1.91964 1.919643,1.91964 1.919643,0 1.919643,0 1.919643,-1.91964 0,-1.91965 0,-1.91965 1.919643,-1.91965 1.919642,0 1.919642,0 1.919642,1.91965 0,1.91964 0,1.91964 1.919643,1.91964 1.919643,0 1.919643,0 1.919643,-1.91964 0,-1.91965 0,-1.91965 1.919643,-1.91965 1.919643,0 1.919643,0 1.919643,1.91965 0,1.91964 0,1.91964 1.919643,1.91964 1.919643,0 1.919643,0 1.919643,-1.91964 0,-1.91965 0,-1.91965 1.919642,-1.91965 1.919643,0 1.919643,0 1.919643,1.91965 0,1.91964 0,1.91964 1.919643,1.91964 1.919643,0 1.919643,0 1.919643,-1.91964 0,-1.91965 0,-1.91965 1.91964,-1.91965 1.91965,0 1.91965,0 1.91965,1.91965 0,1.91964 0,1.91964 1.91964,1.91964 1.91964,0 1.91964,0 1.91964,-1.91964 0,-1.91965 0,-1.91965 1.91964,-1.91965 1.91965,0 1.91965,0 1.91965,1.91965 0,1.91964 0,1.91964 1.91964,1.91964 1.91964,0 1.91964,0 1.91964,-1.91964 0,-1.91965 0,-1.91965 1.91965,-1.91965 1.91964,0 1.91964,0 1.91964,1.91965 0,1.91964 0,1.91964 1.91964,1.91964 1.91964,0 1.91964,0 1.91964,-1.91964 0,-1.91965 0,-1.91965 1.91965,-1.91965 1.91964,0 1.91964,0 1.91964,1.91965 0,1.91964 0,1.91964 1.91964,1.91964 1.91965,0 1.91965,0 1.91965,-1.91964 0,-1.91965 0,-1.91965 1.91964,-1.91965 1.91964,0 1.91964,0 1.91964,1.91965 0,1.91964 0,1.91964 1.91964,1.91964 1.91965,0 1.91965,0 1.91965,-1.91964 0,-1.91965 0,-1.91965 1.91964,-1.91965 1.91964,0 1.91964,0 1.91964,1.91965 0,1.91964 0,1.91964 1.91965,1.91964 1.91964,0 1.91964,0 1.91964,-1.91964 0,-1.91965 0,-1.91965 1.91964,-1.91965 1.91964,0 1.91964,0 1.91964,1.91965 0,1.91964 0,1.91964 1.91965,1.91964 1.91964,0 1.91964,0 1.91964,-1.91964 0,-1.91965 0,-1.91965 1.91964,-1.91965 1.91965,0 1.91965,0 1.91965,1.91965 0,1.91964 0,1.91964 1.91964,1.91964 1.91964,0 1.91964,0 1.91964,-1.91964 0,-1.91965 0,-1.91965 1.91964,-1.91965 1.91965,0 1.91965,0 1.91965,1.91965 0,1.91964 0,1.91964 1.91964,1.91964 1.91964,0 1.91964,0 1.91964,-1.91964 0,-1.91965 0,-1.91965 1.91965,-1.91965 1.91964,0 1.91964,0 1.91964,-1.91964 0,-1.91964 0,-1.91964 1.91964,-1.91964 1.91964,0 1.91964,0 1.91964,-1.91964 l 0,-1.91965 -17.27678,0 -17.27679,0 0,-1.91964 c 0,-1.91964 0,-1.91964 1.91965,-1.91964 1.91964,0 1.91964,0 1.91964,-1.91965 0,-1.91964 0,-1.91964 1.91964,-1.91964 l 1.91964,0 0,-11.51786 0,-11.51786 -1.91964,0 c -1.91964,0 -1.91964,0 -1.91964,-1.91964 0,-1.91964 0,-1.91964 -1.91964,-1.91964 -1.91965,0 -1.91965,0 -1.91965,-1.91965 0,-1.91964 0,-1.91964 1.91965,-1.91964 1.91964,0 1.91964,0 1.91964,-1.91964 0,-1.91965 0,-1.91965 1.91964,-1.91965 l 1.91964,0 0,-11.517853 0,-11.517857 -1.91964,0 c -1.91964,0 -1.91964,0 -1.91964,-1.919643 0,-1.919643 0,-1.919643 -1.91964,-1.919643 -1.91965,0 -1.91965,0 -1.91965,-1.919643 0,-1.919643 0,-1.919643 1.91965,-1.919643 1.91964,0 1.91964,0 1.91964,-1.919643 0,-1.919643 0,-1.919643 1.91964,-1.919643 l 1.91964,0 0,-11.517857 0,-11.517857 -1.91964,0 c -1.91964,0 -1.91964,0 -1.91964,-1.919643 0,-1.919643 0,-1.919643 -1.91964,-1.919643 -1.91965,0 -1.91965,0 -1.91965,-1.919642 l 0,-1.919643 -40.3125,0 z m 0,3.839285 40.312497,0 40.3125,0 0,1.919643 c 0,1.919643 0,1.919643 1.91965,1.919643 l 1.91964,0 0,11.517857 0,11.517857 -1.91964,0 c -1.91965,0 -1.91965,0 -1.91965,1.919643 l 0,1.919643 -40.3125,0 -40.312497,0 0,-1.919643 c 0,-1.919643 0,-1.919643 -1.919643,-1.919643 l -1.919643,0 0,-11.517857 0,-11.517857 1.919643,0 c 1.919643,0 1.919643,0 1.919643,-1.919643 z m 0,34.553572 40.312497,0 40.3125,0 0,1.919643 c 0,1.919643 0,1.919643 1.91965,1.919643 l 1.91964,0 0,11.517857 0,11.517853 -1.91964,0 c -1.91965,0 -1.91965,0 -1.91965,1.91965 l 0,1.91964 -40.3125,0 -40.312497,0 0,-1.91964 c 0,-1.91965 0,-1.91965 -1.919643,-1.91965 l -1.919643,0 0,-11.517853 0,-11.517857 1.919643,0 c 1.919643,0 1.919643,0 1.919643,-1.919643 z m 0,34.553576 40.312497,0 40.3125,0 0,1.91964 c 0,1.91964 0,1.91964 1.91965,1.91964 l 1.91964,0 0,11.51786 0,11.51786 -1.91964,0 c -1.91965,0 -1.91965,0 -1.91965,1.91964 l 0,1.91965 -40.3125,0 -40.312497,0 0,-1.91965 c 0,-1.91964 0,-1.91964 -1.919643,-1.91964 l -1.919643,0 0,-11.51786 0,-11.51786 1.919643,0 c 1.919643,0 1.919643,0 1.919643,-1.91964 z m -24.955357,38.39286 c 1.919643,0 1.919643,0 1.919643,1.91964 0,1.91964 0,1.91964 -1.919643,1.91964 -1.919643,0 -1.919643,0 -1.919643,-1.91964 0,-1.91964 0,-1.91964 1.919643,-1.91964 z m 7.678571,0 c 1.919643,0 1.919643,0 1.919643,1.91964 0,1.91964 0,1.91964 -1.919643,1.91964 -1.919643,0 -1.919643,0 -1.919643,-1.91964 0,-1.91964 0,-1.91964 1.919643,-1.91964 z m 7.678572,0 c 1.919642,0 1.919642,0 1.919642,1.91964 0,1.91964 0,1.91964 -1.919642,1.91964 -1.919643,0 -1.919643,0 -1.919643,-1.91964 0,-1.91964 0,-1.91964 1.919643,-1.91964 z m 7.678571,0 c 1.919643,0 1.919643,0 1.919643,1.91964 0,1.91964 0,1.91964 -1.919643,1.91964 -1.919643,0 -1.919643,0 -1.919643,-1.91964 0,-1.91964 0,-1.91964 1.919643,-1.91964 z m 7.678571,0 c 1.919643,0 1.919643,0 1.919643,1.91964 0,1.91964 0,1.91964 -1.919643,1.91964 -1.919642,0 -1.919642,0 -1.919642,-1.91964 0,-1.91964 0,-1.91964 1.919642,-1.91964 z m 7.678572,0 c 1.919643,0 1.919643,0 1.919643,1.91964 0,1.91964 0,1.91964 -1.919643,1.91964 -1.919643,0 -1.919643,0 -1.919643,-1.91964 0,-1.91964 0,-1.91964 1.919643,-1.91964 z m 7.678571,0 c 1.919643,0 1.919643,0 1.919643,1.91964 0,1.91964 0,1.91964 -1.919643,1.91964 -1.919643,0 -1.919643,0 -1.919643,-1.91964 0,-1.91964 0,-1.91964 1.919643,-1.91964 z m 7.678572,0 c 1.919643,0 1.919643,0 1.919643,1.91964 0,1.91964 0,1.91964 -1.919643,1.91964 -1.919643,0 -1.919643,0 -1.919643,-1.91964 0,-1.91964 0,-1.91964 1.919643,-1.91964 z m 7.678571,0 c 1.919643,0 1.919643,0 1.919643,1.91964 0,1.91964 0,1.91964 -1.919643,1.91964 -1.919643,0 -1.919643,0 -1.919643,-1.91964 0,-1.91964 0,-1.91964 1.919643,-1.91964 z m 7.678573,0 c 1.91964,0 1.91964,0 1.91964,1.91964 0,1.91964 0,1.91964 -1.91964,1.91964 -1.91964,0 -1.91964,0 -1.91964,-1.91964 0,-1.91964 0,-1.91964 1.91964,-1.91964 z m 7.67857,0 c 1.91964,0 1.91964,0 1.91964,1.91964 0,1.91964 0,1.91964 -1.91964,1.91964 -1.91964,0 -1.91964,0 -1.91964,-1.91964 0,-1.91964 0,-1.91964 1.91964,-1.91964 z m 7.67857,0 c 1.91964,0 1.91964,0 1.91964,1.91964 0,1.91964 0,1.91964 -1.91964,1.91964 -1.91964,0 -1.91964,0 -1.91964,-1.91964 0,-1.91964 0,-1.91964 1.91964,-1.91964 z m 7.67857,0 c 1.91965,0 1.91965,0 1.91965,1.91964 0,1.91964 0,1.91964 -1.91965,1.91964 -1.91964,0 -1.91964,0 -1.91964,-1.91964 0,-1.91964 0,-1.91964 1.91964,-1.91964 z m 7.67857,0 c 1.91965,0 1.91965,0 1.91965,1.91964 0,1.91964 0,1.91964 -1.91965,1.91964 -1.91964,0 -1.91964,0 -1.91964,-1.91964 0,-1.91964 0,-1.91964 1.91964,-1.91964 z m 7.67858,0 c 1.91964,0 1.91964,0 1.91964,1.91964 0,1.91964 0,1.91964 -1.91964,1.91964 -1.91965,0 -1.91965,0 -1.91965,-1.91964 0,-1.91964 0,-1.91964 1.91965,-1.91964 z m 7.67857,0 c 1.91964,0 1.91964,0 1.91964,1.91964 0,1.91964 0,1.91964 -1.91964,1.91964 -1.91965,0 -1.91965,0 -1.91965,-1.91964 0,-1.91964 0,-1.91964 1.91965,-1.91964 z m 7.67857,0 c 1.91964,0 1.91964,0 1.91964,1.91964 0,1.91964 0,1.91964 -1.91964,1.91964 -1.91964,0 -1.91964,0 -1.91964,-1.91964 0,-1.91964 0,-1.91964 1.91964,-1.91964 z m 7.67857,0 c 1.91964,0 1.91964,0 1.91964,1.91964 0,1.91964 0,1.91964 -1.91964,1.91964 -1.91964,0 -1.91964,0 -1.91964,-1.91964 0,-1.91964 0,-1.91964 1.91964,-1.91964 z M 48.169643,159.54257 c -1.919643,0 -1.919643,0 -1.919643,1.91964 0,1.91964 0,1.91964 1.919643,1.91964 1.919643,0 1.919643,0 1.919643,-1.91964 0,-1.91964 0,-1.91964 -1.919643,-1.91964 z m 15.357143,0 c -1.919643,0 -1.919643,0 -1.919643,1.91964 0,1.91964 0,1.91964 1.919643,1.91964 1.919643,0 1.919643,0 1.919643,-1.91964 0,-1.91964 0,-1.91964 -1.919643,-1.91964 z m 15.357143,0 c -1.919643,0 -1.919643,0 -1.919643,1.91964 0,1.91964 0,1.91964 1.919643,1.91964 1.919642,0 1.919642,0 1.919642,-1.91964 0,-1.91964 0,-1.91964 -1.919642,-1.91964 z m 15.357142,0 c -1.919642,0 -1.919642,0 -1.919642,1.91964 0,1.91964 0,1.91964 1.919642,1.91964 1.919643,0 1.919643,0 1.919643,-1.91964 0,-1.91964 0,-1.91964 -1.919643,-1.91964 z m 15.357139,0 c -1.91964,0 -1.91964,0 -1.91964,1.91964 0,1.91964 0,1.91964 1.91964,1.91964 1.91965,0 1.91965,0 1.91965,-1.91964 0,-1.91964 0,-1.91964 -1.91965,-1.91964 z m 15.35715,0 c -1.91965,0 -1.91965,0 -1.91965,1.91964 0,1.91964 0,1.91964 1.91965,1.91964 1.91964,0 1.91964,0 1.91964,-1.91964 0,-1.91964 0,-1.91964 -1.91964,-1.91964 z m 15.35714,0 c -1.91964,0 -1.91964,0 -1.91964,1.91964 0,1.91964 0,1.91964 1.91964,1.91964 1.91964,0 1.91964,0 1.91964,-1.91964 0,-1.91964 0,-1.91964 -1.91964,-1.91964 z m 15.35714,0 c -1.91964,0 -1.91964,0 -1.91964,1.91964 0,1.91964 0,1.91964 1.91964,1.91964 1.91965,0 1.91965,0 1.91965,-1.91964 0,-1.91964 0,-1.91964 -1.91965,-1.91964 z"
       id="rect27044"
       inkscape:connector-curvature="0"
       sodipodi:nodetypes="cccccsccccccccccccccccccccccccccccccccccccccccccccccccccccccccccccccccccccsssscccccccssccccccccsssscccccccsscccccccccccccccccccccccccccccccccccccccccccccccccccccccccccccccccccccccsscccccccccccccccccccccccsssssccccccccccsssssssssssccccccccsssscccssssssscccssssssscccsssscccssssssssssssssssssssssssssssssssssssssssssssssssssssssssssssssssssssssssssssssscccsssscccssssssscccssssssscccssssccccccsscccsscccsscccssccccsscccsscccsscccssccccsscccsscccsscccsscssssssssssssssssssssssssssssssssssssssssssssssssssssssssssssssssssssssssssssssssssssssssssssssssssssssssssssssssssssssssssssssssss"
       inkscape:export-xdpi="135.31224"
       inkscape:export-ydpi="135.31224" />
  </g>
</svg>
