<?xml version="1.0" encoding="UTF-8" standalone="no"?>
<!-- Created with Inkscape (http://www.inkscape.org/) -->

<svg
   xmlns:dc="http://purl.org/dc/elements/1.1/"
   xmlns:cc="http://creativecommons.org/ns#"
   xmlns:rdf="http://www.w3.org/1999/02/22-rdf-syntax-ns#"
   xmlns:svg="http://www.w3.org/2000/svg"
   xmlns="http://www.w3.org/2000/svg"
   xmlns:sodipodi="http://sodipodi.sourceforge.net/DTD/sodipodi-0.dtd"
   xmlns:inkscape="http://www.inkscape.org/namespaces/inkscape"
   width="53.617527mm"
   height="47.146442mm"
   viewBox="0 0 189.98336 167.05432"
   id="svg27141"
   version="1.1"
   inkscape:version="0.91 r13725"
   sodipodi:docname="stack2.svg">
  <defs
     id="defs27143" />
  <sodipodi:namedview
     id="base"
     pagecolor="#ffffff"
     bordercolor="#666666"
     borderopacity="1.0"
     inkscape:pageopacity="0.0"
     inkscape:pageshadow="2"
     inkscape:zoom="0.98994949"
     inkscape:cx="118.88808"
     inkscape:cy="114.72534"
     inkscape:document-units="px"
     inkscape:current-layer="layer1"
     showgrid="false"
     fit-margin-top="0"
     fit-margin-left="0"
     fit-margin-right="0"
     fit-margin-bottom="0"
     inkscape:window-width="1600"
     inkscape:window-height="836"
     inkscape:window-x="0"
     inkscape:window-y="27"
     inkscape:window-maximized="1" />
  <metadata
     id="metadata27146">
    <rdf:RDF>
      <cc:Work
         rdf:about="">
        <dc:format>image/svg+xml</dc:format>
        <dc:type
           rdf:resource="http://purl.org/dc/dcmitype/StillImage" />
        <dc:title></dc:title>
      </cc:Work>
    </rdf:RDF>
  </metadata>
  <g
     inkscape:label="Layer 1"
     inkscape:groupmode="layer"
     id="layer1"
     transform="translate(-5.0083201,19.736391)">
    <path
       inkscape:connector-curvature="0"
       style="opacity:1;fill:#ffffff;fill-opacity:1;stroke:none;stroke-width:6;stroke-linecap:round;stroke-linejoin:round"
       d="m 70.519797,-19.736391 0,4.913356 0,4.9133543 -1.63771,0 -1.637827,0 0,3.2755451 0,3.275618 -27.842394,0 -27.842396,0 0,1.6378273 0,1.63770999 34.393586,0 34.393469,0 0,1.63782721 0,1.6377882 1.637827,0 1.637787,0 0,9.8267289 0,9.826689 -1.637787,0 -1.637827,0 0,1.637749 0,1.637827 -34.393469,0 -34.393586,0 0,1.637788 0,1.637827 27.842396,0 27.842394,0 0,3.275537 0,3.275537 -1.637788,0 -1.637827,0 0,1.637827 0,1.637788 3.275615,0 3.275537,0 0,-1.637788 0,-1.637827 1.637827,0 1.637827,0 0,-1.63771 0,-1.637827 1.63771,0 1.637827,0 0,6.551152 0,6.55119 -1.637827,0 -1.63771,0 0,3.275537 0,3.275537 1.63771,0 1.637827,0 0,-1.63771 0,-1.637827 1.637788,0 1.637749,0 0,-3.275537 0,-3.275615 1.637827,0 1.637787,0 0,-3.275575 0,-3.275615 1.637827,0 1.63771,0 0,3.275615 0,3.275575 1.637827,0 1.637827,0 0,-3.275575 0,-3.275615 1.63771,0 1.637827,0 0,-9.826689 0,-9.826728 1.637788,0 1.637826,0 0,-1.63771 0,-1.637827 34.393469,0 34.39359,0 0,-1.637827 0,-1.6377102 -34.39359,0 -34.393469,0 0,-1.6378272 0,-1.6377882 3.275539,0 3.27554,0 0,-1.6377491 0,-1.6378272 -4.91333,0 -4.913363,0 0,-3.27561541 0,-3.27553729 50.771423,0 50.77139,0 0,-1.6378246 0,-1.6377934 -1.63775,0 -1.63782,0 0,-1.6377361 0,-1.637809 -1.63779,0 -1.63783,0 0,1.637809 0,1.6377361 -1.63771,0 -1.63783,0 0,-1.6377361 0,-1.637809 -1.63782,0 -1.63771,0 0,1.637809 0,1.6377361 -1.63783,0 -1.63771,0 0,-1.6377361 0,-1.637809 -1.63783,0 -1.63782,0 0,1.637809 0,1.6377361 -1.63772,0 -1.63782,0 0,-1.6377361 0,-1.637809 -1.63779,0 -1.63775,0 0,1.637809 0,1.6377361 -1.63782,0 -1.63779,0 0,-1.6377361 0,-1.637809 -1.63783,0 -1.63771,0 0,1.637809 0,1.6377361 -1.63783,0 -1.63782,0 0,-1.6377361 0,-1.637809 -1.63771,0 -1.63783,0 0,1.637809 0,1.6377361 -1.63779,0 -1.63782,0 0,-1.6377361 0,-1.637809 -1.63775,0 -1.63779,0 0,1.637809 0,1.6377361 -1.63783,0 -1.63771,0 0,-1.6377361 0,-1.637809 -1.63783,0 -1.63778,0 0,1.637809 0,1.6377361 -1.63775,0 -1.63783,0 0,-1.6377361 0,-1.637809 -1.63779,0 -1.63782,0 0,1.637809 0,1.6377361 -1.63772,0 -1.63782,0 0,-1.6377361 0,-1.637809 -1.63783,0 -1.63771,0 0,1.637809 0,1.6377361 -1.63783,0 -1.63778,0 0,-1.6377361 0,-1.637809 -1.63783,0 -1.63775,0 0,1.637809 0,1.6377361 -1.63779,0 -1.63783,0 0,-1.6377361 0,-1.637809 -1.63771,0 -1.63782,0 0,1.637809 0,1.6377361 -1.63783,0 -1.63771,0 0,-1.6377361 0,-1.637809 -1.63782,0 -1.63779,0 0,1.637809 0,1.6377361 -1.63783,0 -1.63775,0 0,-1.6377361 0,-1.637809 -1.63779,0 -1.63782,0 0,1.637809 0,1.6377361 -1.63771,0 -1.63783,0 0,-1.6377361 0,-1.637809 -1.63779,0 -1.637749,0 0,1.637809 0,1.6377361 -1.637826,0 -1.637788,0 0,-1.6377361 0,-1.637809 -1.637827,0 -1.63771,0 0,1.637809 0,1.6377361 -1.637827,0 -1.637827,0 0,-1.6377361 0,-1.637809 -1.63771,0 -1.637827,0 0,1.637809 0,1.6377361 -1.637787,0 -1.637827,0 0,-1.6377361 0,-1.637809 -1.637749,0 -1.637788,0 0,-1.6378113 0,-1.637734 -1.637827,0 -1.63771,0 0,-3.27562 0,-3.275545 -1.637827,0 -1.637827,0 z m 9.826728,9.8267103 1.637827,0 1.637787,0 0,-1.6378113 0,-1.637734 -1.637787,0 -1.637827,0 0,1.637734 0,1.6378113 z m 6.551151,0 1.637827,0 1.637827,0 0,-1.6378113 0,-1.637734 -1.637827,0 -1.637827,0 0,1.637734 0,1.6378113 z m 6.551191,0 1.637788,0 1.637826,0 0,-1.6378113 0,-1.637734 -1.637826,0 -1.637788,0 0,1.637734 0,1.6378113 z m 6.551153,0 1.63783,0 1.63771,0 0,-1.6378113 0,-1.637734 -1.63771,0 -1.63783,0 0,1.637734 0,1.6378113 z m 6.55115,0 1.63775,0 1.63783,0 0,-1.6378113 0,-1.637734 -1.63783,0 -1.63775,0 0,1.637734 0,1.6378113 z m 6.55119,0 1.63771,0 1.63783,0 0,-1.6378113 0,-1.637734 -1.63783,0 -1.63771,0 0,1.637734 0,1.6378113 z m 6.55107,0 1.63783,0 1.63779,0 0,-1.6378113 0,-1.637734 -1.63779,0 -1.63783,0 0,1.637734 0,1.6378113 z m 6.5512,0 1.63778,0 1.63783,0 0,-1.6378113 0,-1.637734 -1.63783,0 -1.63778,0 0,1.637734 0,1.6378113 z m 6.55115,0 1.63782,0 1.63772,0 0,-1.6378113 0,-1.637734 -1.63772,0 -1.63782,0 0,1.637734 0,1.6378113 z m 6.55115,0 1.63783,0 1.63775,0 0,-1.6378113 0,-1.637734 -1.63775,0 -1.63783,0 0,1.637734 0,1.6378113 z m 6.55119,0 1.63771,0 1.63783,0 0,-1.6378113 0,-1.637734 -1.63783,0 -1.63771,0 0,1.637734 0,1.6378113 z m 6.55108,0 1.63782,0 1.63779,0 0,-1.6378113 0,-1.637734 -1.63779,0 -1.63782,0 0,1.637734 0,1.6378113 z m 6.55115,0 1.63782,0 1.63783,0 0,-1.6378113 0,-1.637734 -1.63783,0 -1.63782,0 0,1.637734 0,1.6378113 z m 6.55119,0 1.63779,0 1.63782,0 0,-1.6378113 0,-1.637734 -1.63782,0 -1.63779,0 0,1.637734 0,1.6378113 z m 6.55115,0 1.63782,0 1.63772,0 0,-1.6378113 0,-1.637734 -1.63772,0 -1.63782,0 0,1.637734 0,1.6378113 z m 6.55119,0 1.63771,0 1.63783,0 0,-1.6378113 0,-1.637734 -1.63783,0 -1.63771,0 0,1.637734 0,1.6378113 z m 6.55107,0 1.63783,0 1.63771,0 0,-1.6378113 0,-1.637734 -1.63771,0 -1.63783,0 0,1.637734 0,1.6378113 z m -81.88939,13.1023158 1.63782,0 1.63779,0 0,-1.6377882 0,-1.63782721 -1.63779,0 -1.63782,0 0,1.63782721 0,1.6377882 z m 62.23598,9.8267289 0,1.637827 0,1.63771 1.63779,0 1.63782,0 0,-1.63771 0,-1.637827 -1.63782,0 -1.63779,0 z m 3.27561,3.275537 0,9.826728 0,9.826689 1.63775,0 1.63779,0 0,-9.826689 0,-9.826728 -1.63779,0 -1.63775,0 z m 0,19.653417 -1.63782,0 -1.63779,0 0,1.637827 0,1.637788 1.63779,0 1.63782,0 0,-1.637788 0,-1.637827 z m -3.27561,3.275615 -34.39359,0 -34.393469,0 0,1.637749 0,1.637826 34.393469,0 34.39359,0 0,-1.637826 0,-1.637749 z m 0,3.275575 0,1.637788 0,1.637827 1.63779,0 1.63782,0 0,-1.637827 0,-1.637788 -1.63782,0 -1.63779,0 z m 3.27561,3.275615 0,9.826689 0,9.826728 1.63775,0 1.63779,0 0,-9.826728 0,-9.826689 -1.63779,0 -1.63775,0 z m 0,19.653417 -1.63782,0 -1.63779,0 0,1.637788 0,1.637749 1.63779,0 1.63782,0 0,-1.637749 0,-1.637788 z m -3.27561,3.275537 -34.39359,0 -34.393469,0 0,1.637827 0,1.637788 34.393469,0 34.39359,0 0,-1.637788 0,-1.637827 z m 0,3.275615 0,1.637824 0,1.637713 1.63779,0 1.63782,0 0,-1.637713 0,-1.637824 -1.63782,0 -1.63779,0 z m 3.27561,3.275537 0,9.826726 0,9.826805 1.63775,0 1.63779,0 0,-9.826805 0,-9.826726 -1.63779,0 -1.63775,0 z m 0,19.653531 -1.63782,0 -1.63779,0 0,1.63771 0,1.637827 1.63779,0 1.63782,0 0,-1.637827 0,-1.63771 z m -3.27561,3.275537 -34.39359,0 -34.393469,0 0,1.637788 0,1.637825 34.393469,0 34.39359,0 0,-1.637825 0,-1.637788 z m 0,3.275613 0,1.63775 0,1.63779 1.63779,0 1.63782,0 0,-1.63779 0,-1.63775 -1.63782,0 -1.63779,0 z m 3.27561,3.27554 0,9.82673 0,9.82669 1.63775,0 1.63779,0 0,-9.82669 0,-9.82673 -1.63779,0 -1.63775,0 z m 0,19.65342 -1.63782,0 -1.63779,0 0,1.63782 0,1.63779 1.63779,0 1.63782,0 0,-1.63779 0,-1.63782 z m -3.27561,3.27561 -34.39359,0 -34.393469,0 0,1.63783 0,1.63774 -14.740129,0 -14.740092,0 0,1.63779 0,1.63783 1.637827,0 1.63771,0 0,1.63771 0,1.63783 1.637827,0 1.637827,0 0,-1.63783 0,-1.63771 1.63771,0 1.637827,0 0,1.63771 0,1.63783 1.637788,0 1.637749,0 0,-1.63783 0,-1.63771 1.637827,0 1.637787,0 0,1.63771 0,1.63783 1.637827,0 1.63771,0 0,-1.63783 0,-1.63771 1.637827,0 1.637827,0 0,1.63771 0,1.63783 1.63771,0 1.637827,0 0,-1.63783 0,-1.63771 1.637788,0 1.637826,0 0,1.63771 0,1.63783 1.637749,0 1.63779,0 0,-1.63783 0,-1.63771 1.63783,0 1.63771,0 0,1.63771 0,1.63783 1.63782,0 1.63779,0 0,-1.63783 0,-1.63771 1.63775,0 1.63783,0 0,1.63771 0,1.63783 1.63779,0 1.63782,0 0,-1.63783 0,-1.63771 1.63771,0 1.63783,0 0,1.63771 0,1.63783 1.63782,0 1.63771,0 0,-1.63783 0,-1.63771 1.63783,0 1.63779,0 0,1.63771 0,1.63783 1.63775,0 1.63783,0 0,-1.63783 0,-1.63771 1.63778,0 1.63783,0 0,1.63771 0,1.63783 1.63771,0 1.63783,0 0,-1.63783 0,-1.63771 1.63782,0 1.63772,0 0,1.63771 0,1.63783 1.63782,0 1.63779,0 0,-1.63783 0,-1.63771 1.63783,0 1.63775,0 0,1.63771 0,1.63783 1.63778,0 1.63783,0 0,-1.63783 0,-1.63771 1.63771,0 1.63783,0 0,1.63771 0,1.63783 1.63779,0 1.63775,0 0,-1.63783 0,-1.63771 1.63782,0 1.63779,0 0,1.63771 0,1.63783 1.63783,0 1.63771,0 0,-1.63783 0,-1.63771 1.63782,0 1.63783,0 0,1.63771 0,1.63783 1.63771,0 1.63783,0 0,-1.63783 0,-1.63771 1.63779,0 1.63782,0 0,1.63771 0,1.63783 1.63775,0 1.63779,0 0,-1.63783 0,-1.63771 1.63782,0 1.63772,0 0,1.63771 0,1.63783 1.63782,0 1.63783,0 0,-1.63783 0,-1.63771 1.63771,0 1.63783,0 0,1.63771 0,1.63783 1.63771,0 1.63782,0 0,-1.63783 0,-1.63771 1.63783,0 1.63771,0 0,1.63771 0,1.63783 1.63783,0 1.63779,0 0,-1.63783 0,-1.63771 1.63782,0 1.63775,0 0,-1.63783 0,-1.63779 -14.74009,0 -14.74005,0 0,-1.63774 0,-1.63783 z m 22.92895,9.82673 -1.63771,0 -1.63783,0 0,1.63782 0,1.63771 1.63783,0 1.63771,0 0,-1.63771 0,-1.63782 z m -6.55107,0 -1.63783,0 -1.63771,0 0,1.63782 0,1.63771 1.63771,0 1.63783,0 0,-1.63771 0,-1.63782 z m -6.55119,0 -1.63772,0 -1.63782,0 0,1.63782 0,1.63771 1.63782,0 1.63772,0 0,-1.63771 0,-1.63782 z m -6.55108,0 -1.63782,0 -1.63779,0 0,1.63782 0,1.63771 1.63779,0 1.63782,0 0,-1.63771 0,-1.63782 z m -6.55115,0 -1.63783,0 -1.63782,0 0,1.63782 0,1.63771 1.63782,0 1.63783,0 0,-1.63771 0,-1.63782 z m -6.55119,0 -1.63779,0 -1.63782,0 0,1.63782 0,1.63771 1.63782,0 1.63779,0 0,-1.63771 0,-1.63782 z m -6.55115,0 -1.63783,0 -1.63771,0 0,1.63782 0,1.63771 1.63771,0 1.63783,0 0,-1.63771 0,-1.63782 z m -6.55115,0 -1.63775,0 -1.63783,0 0,1.63782 0,1.63771 1.63783,0 1.63775,0 0,-1.63771 0,-1.63782 z m -6.55119,0 -1.63772,0 -1.63782,0 0,1.63782 0,1.63771 1.63782,0 1.63772,0 0,-1.63771 0,-1.63782 z m -6.55108,0 -1.63783,0 -1.63778,0 0,1.63782 0,1.63771 1.63778,0 1.63783,0 0,-1.63771 0,-1.63782 z m -6.55119,0 -1.63779,0 -1.63783,0 0,1.63782 0,1.63771 1.63783,0 1.63779,0 0,-1.63771 0,-1.63782 z m -6.55115,0 -1.63783,0 -1.63771,0 0,1.63782 0,1.63771 1.63771,0 1.63783,0 0,-1.63771 0,-1.63782 z m -6.55115,0 -1.63783,0 -1.63775,0 0,1.63782 0,1.63771 1.63775,0 1.63783,0 0,-1.63771 0,-1.63782 z m -6.55119,0 -1.63771,0 -1.63783,0 0,1.63782 0,1.63771 1.63783,0 1.63771,0 0,-1.63771 0,-1.63782 z m -6.551079,0 -1.637826,0 -1.637788,0 0,1.63782 0,1.63771 1.637788,0 1.637826,0 0,-1.63771 0,-1.63782 z m -6.551151,0 -1.637827,0 -1.637827,0 0,1.63782 0,1.63771 1.637827,0 1.637827,0 0,-1.63771 0,-1.63782 z m -6.551191,0 -1.637787,0 -1.637827,0 0,1.63782 0,1.63771 1.637827,0 1.637787,0 0,-1.63771 0,-1.63782 z m -6.551151,0 -1.637827,0 -1.63771,0 0,1.63782 0,1.63771 1.63771,0 1.637827,0 0,-1.63771 0,-1.63782 z m 19.653493,-9.82673 0,-1.63779 0,-1.63782 -1.637826,0 -1.637788,0 0,1.63782 0,1.63779 1.637788,0 1.637826,0 z m -3.275614,-3.27561 0,-9.82669 0,-9.82673 -1.637827,0 -1.63771,0 0,9.82673 0,9.82669 1.63771,0 1.637827,0 z m 0,-19.65342 1.637788,0 1.637826,0 0,-1.63779 0,-1.63775 -1.637826,0 -1.637788,0 0,1.63775 0,1.63779 z m 3.275614,-6.551153 0,-1.637827 0,-1.63771 -1.637826,0 -1.637788,0 0,1.63771 0,1.637827 1.637788,0 1.637826,0 z m -3.275614,-3.275537 0,-9.826805 0,-9.826726 -1.637827,0 -1.63771,0 0,9.826726 0,9.826805 1.63771,0 1.637827,0 z m 0,-19.653531 1.637788,0 1.637826,0 0,-1.637713 0,-1.637824 -1.637826,0 -1.637788,0 0,1.637824 0,1.637713 z m 3.275614,-6.551152 0,-1.637749 0,-1.637788 -1.637826,0 -1.637788,0 0,1.637788 0,1.637749 1.637788,0 1.637826,0 z m -3.275614,-3.275537 0,-9.826728 0,-9.826689 -1.637827,0 -1.63771,0 0,9.826689 0,9.826728 1.63771,0 1.637827,0 z m 0,-19.653417 1.637788,0 1.637826,0 0,-1.637827 0,-1.637788 -1.637826,0 -1.637788,0 0,1.637788 0,1.637827 z m 3.275614,-6.55119 0,-1.637788 0,-1.637827 -1.637826,0 -1.637788,0 0,1.637827 0,1.637788 1.637788,0 1.637826,0 z M 11.55947,26.121629 l 0,-1.637827 0,-1.637749 -1.637788,0 -1.6377491,0 0,1.637749 0,1.637827 1.6377491,0 1.637788,0 z m -3.2755371,-3.275576 0,-9.826689 0,-9.8267289 -1.6378272,0 -1.6377856,0 0,9.8267289 0,9.826689 1.6377856,0 1.6378272,0 z m 0,-19.6534179 1.6377491,0 1.637788,0 0,-1.6377882 0,-1.63782721 -1.637788,0 -1.6377491,0 0,1.63782721 0,1.6377882 z M 67.24426,-9.9096807 l 0,-1.6378113 0,-1.637734 -1.637788,0 -1.637827,0 0,-1.637809 0,-1.637811 -3.275537,0 -3.275537,0 0,1.637811 0,1.637809 1.63771,0 1.637827,0 0,1.637734 0,1.6378113 3.275537,0 3.275615,0 z m 16.377879,-9.8267103 0,1.637733 0,1.637812 1.637827,0 1.63771,0 0,-1.637812 0,-1.637733 -1.63771,0 -1.637827,0 z m 13.102342,0 0,1.637733 0,1.637812 1.637749,0 1.63779,0 0,-1.637812 0,-1.637733 -1.63779,0 -1.637749,0 z m 13.102269,0 0,1.637733 0,1.637812 1.63779,0 1.63782,0 0,-1.637812 0,-1.637733 -1.63782,0 -1.63779,0 z m 13.1023,0 0,1.637733 0,1.637812 1.63775,0 1.63783,0 0,-1.637812 0,-1.637733 -1.63783,0 -1.63775,0 z m 13.10227,0 0,1.637733 0,1.637812 1.63782,0 1.63779,0 0,-1.637812 0,-1.637733 -1.63779,0 -1.63782,0 z m 13.10234,0 0,1.637733 0,1.637812 1.63779,0 1.63775,0 0,-1.637812 0,-1.637733 -1.63775,0 -1.63779,0 z m 13.10234,0 0,1.637733 0,1.637812 1.63771,0 1.63783,0 0,-1.637812 0,-1.637733 -1.63783,0 -1.63771,0 z m 13.10223,0 0,1.637733 0,1.637812 1.63782,0 1.63783,0 0,-1.637812 0,-1.637733 -1.63783,0 -1.63782,0 z m -91.716091,163.778751 0,1.63782 0,1.63775 1.637827,0 1.63771,0 0,-1.63775 0,-1.63782 -1.63771,0 -1.637827,0 z m 13.102342,0 0,1.63782 0,1.63775 1.637749,0 1.63779,0 0,-1.63775 0,-1.63782 -1.63779,0 -1.637749,0 z m 13.102269,0 0,1.63782 0,1.63775 1.63779,0 1.63782,0 0,-1.63775 0,-1.63782 -1.63782,0 -1.63779,0 z m 13.1023,0 0,1.63782 0,1.63775 1.63775,0 1.63783,0 0,-1.63775 0,-1.63782 -1.63783,0 -1.63775,0 z m 13.10227,0 0,1.63782 0,1.63775 1.63782,0 1.63779,0 0,-1.63775 0,-1.63782 -1.63779,0 -1.63782,0 z m 13.10234,0 0,1.63782 0,1.63775 1.63779,0 1.63775,0 0,-1.63775 0,-1.63782 -1.63775,0 -1.63779,0 z m 13.10234,0 0,1.63782 0,1.63775 1.63771,0 1.63783,0 0,-1.63775 0,-1.63782 -1.63783,0 -1.63771,0 z m 13.10223,0 0,1.63782 0,1.63775 1.63782,0 1.63783,0 0,-1.63775 0,-1.63782 -1.63783,0 -1.63782,0 z"
       id="rect27829" />
  </g>
</svg>
