<?xml version="1.0" encoding="UTF-8" standalone="no"?>
<!-- Created with Inkscape (http://www.inkscape.org/) -->

<svg
   xmlns:dc="http://purl.org/dc/elements/1.1/"
   xmlns:cc="http://creativecommons.org/ns#"
   xmlns:rdf="http://www.w3.org/1999/02/22-rdf-syntax-ns#"
   xmlns:svg="http://www.w3.org/2000/svg"
   xmlns="http://www.w3.org/2000/svg"
   xmlns:sodipodi="http://sodipodi.sourceforge.net/DTD/sodipodi-0.dtd"
   xmlns:inkscape="http://www.inkscape.org/namespaces/inkscape"
   width="77.611115mm"
   height="29.633343mm"
   viewBox="0 0 275.00001 105.00003"
   id="svg8326"
   version="1.1"
   inkscape:version="0.91 r13725"
   sodipodi:docname="usp.svg">
  <defs
     id="defs8328" />
  <sodipodi:namedview
     id="base"
     pagecolor="#ffffff"
     bordercolor="#666666"
     borderopacity="1.0"
     inkscape:pageopacity="0.0"
     inkscape:pageshadow="2"
     inkscape:zoom="0.49497475"
     inkscape:cx="-438.08246"
     inkscape:cy="451.87221"
     inkscape:document-units="px"
     inkscape:current-layer="layer1"
     showgrid="false"
     fit-margin-top="0"
     fit-margin-left="0"
     fit-margin-right="0"
     fit-margin-bottom="0"
     inkscape:window-width="1600"
     inkscape:window-height="836"
     inkscape:window-x="0"
     inkscape:window-y="27"
     inkscape:window-maximized="1" />
  <metadata
     id="metadata8331">
    <rdf:RDF>
      <cc:Work
         rdf:about="">
        <dc:format>image/svg+xml</dc:format>
        <dc:type
           rdf:resource="http://purl.org/dc/dcmitype/StillImage" />
        <dc:title></dc:title>
      </cc:Work>
    </rdf:RDF>
  </metadata>
  <g
     inkscape:label="Layer 1"
     inkscape:groupmode="layer"
     id="layer1"
     transform="translate(-344.76149,-948.47397)">
    <path
       style="opacity:0.5;fill:#000000;fill-opacity:0.96078431;stroke:none;stroke-width:4;stroke-linecap:round;stroke-linejoin:round"
       d="m 344.76149,948.47397 0,47 0,47.00003 2.5,0 2.5,0 0,2.5 0,2.5 3,0 3,0 0,3 0,3 35.5,0 35.5,0 0,-3 0,-3 8.5,0 8.5,0 0,3 0,3 38.5,0 38.5,0 0,-3 0,-3 2.5,0 2.5,0 0,-2.5 0,-2.5 3,0 3,0 0,-14 0,-14 -3,0 -3,0 0,-2.5 0,-2.5 -2.5,0 -2.5,0 0,-3 0,-3 -3,0 -3,0 0,-2.5 0,-2.50003 -2.5,0 -2.5,0 0,-3 0,-3 -3,0 -3,0 0,-2.5 0,-2.5 -2.5,0 -2.5,0 0,-3 0,-3 -3,0 -3,0 0,-2.5 0,-2.5 -5.5,0 -5.5,0 0,2.5 0,2.5 3,0 3,0 0,3 0,3 2.5,0 2.5,0 0,2.5 0,2.5 3,0 3,0 0,3 0,3 2.5,0 2.5,0 0,2.50003 0,2.5 3,0 3,0 0,5.5 0,5.5 2.5,0 2.5,0 0,3 0,3 3,0 3,0 0,11 0,11 -36,0 -36,0 0,-3 0,-3 -2.5,0 -2.5,0 0,-2.5 0,-2.5 -3,0 -3,0 0,-3 0,-3 -2.5,0 -2.5,0 0,5.5 0,5.5 -3,0 -3,0 0,3 0,3 -33,0 -33,0 0,-3 0,-3 -2.5,0 -2.5,0 0,-38.50003 0,-38.5 16.5,0 16.5,0 0,33 0,33.00003 5.5,0 5.5,0 0,-33.00003 0,-33 16.5,0 16.5,0 0,-5.5 0,-5.5 -44,0 -44,0 z m 104,0 0,3 0,3 -5.5,0 -5.5,0 0,5.5 0,5.5 -2.5,0 -2.5,0 0,11 0,11 2.5,0 2.5,0 0,2.5 0,2.5 3,0 3,0 0,3 0,3 2.5,0 2.5,0 0,2.50003 0,2.5 3,0 3,0 0,3 0,3 2.5,0 2.5,0 0,5.5 0,5.5 3,0 3,0 0,2.5 0,2.5 5.5,0 5.5,0 0,-5.5 0,-5.5 -3,0 -3,0 0,-2.5 0,-2.5 -2.5,0 -2.5,0 0,-3 0,-3 -3,0 -3,0 0,-2.5 0,-2.50003 -2.5,0 -2.5,0 0,-3 0,-3 -3,0 -3,0 0,-2.5 0,-2.5 -2.5,0 -2.5,0 0,-11 0,-11 2.5,0 2.5,0 0,-3 0,-3 33,0 33,0 0,3 0,3 3,0 3,0 0,2.5 0,2.5 2.5,0 2.5,0 0,3 0,3 3,0 3,0 0,-3 0,-3 2.5,0 2.5,0 0,-5.5 0,-5.5 33,0 33,0 0,3 0,3 3,0 3,0 0,22 0,22.00003 -16.5,0 -16.5,0 0,-19.50003 0,-19.5 -3,0 -3,0 0,3 0,3 -2.5,0 -2.5,0 0,33.00003 0,33 -14,0 -14,0 0,2.5 0,2.5 -2.5,0 -2.5,0 0,3 0,3 22,0 22,0 0,-16.5 0,-16.5 22,0 22,0 0,-27.50003 0,-27.5 -3,0 -3,0 0,-5.5 0,-5.5 -5.5,0 -5.5,0 0,-3 0,-3 -33,0 -33,0 0,3 0,3 -2.5,0 -2.5,0 0,2.5 0,2.5 -3,0 -3,0 0,-2.5 0,-2.5 -5.5,0 -5.5,0 0,-3 0,-3 -33,0 -33,0 z"
       id="rect8909"
       inkscape:connector-curvature="0" />
  </g>
</svg>
